<svg width="16px" height="16px" fill="none" xmlns="http://www.w3.org/2000/svg" viewBox="0 0 24 24"><g clip-path="url(#clip0_821_19461)"><g clip-path="url(#clip1_821_19461)"><path d="M5.5 8c0 1.886 0 2.828.586 3.414C6.672 12 7.614 12 9.5 12H12m6.5-4c0 1.886 0 2.828-.586 3.414C17.328 12 16.386 12 14.5 12H12m0 0v4m-2.5 2.5a2.5 2.5 0 1 1 5 0 2.5 2.5 0 0 1-5 0zm6.5-13a2.5 2.5 0 1 1 5 0 2.5 2.5 0 0 1-5 0zm-13 0a2.5 2.5 0 1 1 5 0 2.5 2.5 0 0 1-5 0z" stroke="currentColor" stroke-width="2"></path></g></g><defs><clipPath id="clip0_821_19461"><path fill="currentColor" d="M0 0H24V24H0z"></path></clipPath><clipPath id="clip1_821_19461"><path fill="currentColor" transform="rotate(-180 12 12)" d="M0 0H24V24H0z"></path></clipPath></defs></svg>